# xmcd CD database file
#
# Track frame offsets:
#	150
#	14019
#	27022
#	39253
#	50539
#	64649
#	77516
#	90927
#	104413
#	116325
#	129496
#	141736
#	157036
#	170082
#	182641
#	194204
#	205262
#	215497
#	227655
#	236114
#
# Disc length: 3302 seconds
#
# Revision: 0
# Processed by: cddbd v1.5.2PL0 Copyright (c) Steve Scherf et al.
# Submitted via: CDex 1.51
#
DISCID=1c0ce414
DTITLE=Various Artist - The Roots Of Led Zeppelin - How Many More Years
DYEAR=2009
DGENRE=Blues
TTITLE0=Joe Liggens - Honeydripper
TTITLE1=Arthur Crudup - That's Allright Mama
TTITLE2=Roy Brown - Rockin' At Midnight
TTITLE3=Sister Rosetta Tharpe - Down By The Riverside
TTITLE4=John Lee Hooker - Boogie Chillin'
TTITLE5=Hank Snow  I'm Movin' On
TTITLE6=Muddy Waters - Rollin' And Thumblin'
TTITLE7=BB King - Three O'clock Blues
TTITLE8=Muddy Waters - Long Distance Call
TTITLE9=John Lee Hooker - I'm In The Mood
TTITLE10=Howlin' Wolf - How Many More Years
TTITLE11=Muddy Waters - Honey Bee
TTITLE12=Elmore James - Dust My Broom
TTITLE13=Ray Charles - I Got A Woman
TTITLE14=Howlin' Wolf - No Place To Go
TTITLE15=Lonnie Donegan - Rock Island Line
TTITLE16=Elvis - Baby Let's Play House
TTITLE17=Bo Diddley - I'm A Man
TTITLE18=Elvis - Baby I Don't Care
TTITLE19=Gen Vincent - Be Bop A Lula
EXTD=YEAR: 2009
EXTT0=
EXTT1=
EXTT2=
EXTT3=
EXTT4=
EXTT5=
EXTT6=
EXTT7=
EXTT8=
EXTT9=
EXTT10=
EXTT11=
EXTT12=
EXTT13=
EXTT14=
EXTT15=
EXTT16=
EXTT17=
EXTT18=
EXTT19=
PLAYORDER=
